# xmcd CD database file
#
# Track frame offsets:
#	150
#	9662
#	25057
#	42665
#	54292
#	77347
#	96797
#	114127
#	142135
#	161725
#	197022
#
# Disc length: 4440 seconds
#
# Revision: 0
# Processed by: cddbd v1.5.1PL0 Copyright (c) Steve Scherf et al.
# Submitted via: CDex 1.51
#
DISCID=8511560b
DTITLE=THC!! - TRIBAL HEARTS CALLING!!
DYEAR=2004
DGENRE=JPop
TTITLE0=INTRO 〜002 Lording〜
TTITLE1=Hello!!
TTITLE2=Do my best!!
TTITLE3=わっしょいBeats
TTITLE4=ShyなアイツもやっとGET!!
TTITLE5=DM2 〜Dear My Music〜
TTITLE6=デンジャらす
TTITLE7=忘文
TTITLE8=IN THIS TIME
TTITLE9=communication
TTITLE10=CDDB
EXTD=YEAR: 2004
EXTT0=
EXTT1=
EXTT2=
EXTT3=
EXTT4=
EXTT5=
EXTT6=
EXTT7=
EXTT8=
EXTT9=
EXTT10=
PLAYORDER=
